<?xml version="1.0" encoding="utf-8"?>
<!-- Generator: Adobe Illustrator 22.1.0, SVG Export Plug-In . SVG Version: 6.00 Build 0)  -->
<svg version="1.1" id="Layer_1" xmlns="http://www.w3.org/2000/svg" xmlns:xlink="http://www.w3.org/1999/xlink" x="0px" y="0px"
	 viewBox="0 0 100 100" style="enable-background:new 0 0 100 100;" xml:space="preserve">
<title>Artboard 3</title>
<path d="M-1.3,13.2v57.9c0,7.3,5.7,13.1,12.8,13.2h24.9l25,15.4c0.4,0.2,0.9,0.4,1.3,0.4c1.4,0,2.6-1.2,2.6-2.6V84.2h23.1
	c7.1,0,12.8-5.9,12.8-13.2V13.2C101.3,5.9,95.5,0,88.5,0L11.5,0C4.5,0-1.3,5.9-1.3,13.2z M3.8,13.2c0-4.4,3.4-7.9,7.7-7.9h76.9
	c4.2,0,7.7,3.5,7.7,7.9v57.9c0,4.4-3.4,7.9-7.7,7.9H62.8c0,0,0,0,0,0c-1.4,0-2.6,1.2-2.6,2.6v11.1L38.5,79.3
	c-0.4-0.2-0.9-0.4-1.3-0.4H11.5c-4.2,0-7.7-3.5-7.7-7.9V13.2z"/>
<g>
	<path d="M23.3,17.6h24c1.6,0,3-1.3,3-3s-1.3-3-3-3h-24c-1.6,0-3,1.3-3,3S21.7,17.6,23.3,17.6z"/>
	<path d="M23.3,38.4c-1.6,0-3,1.3-3,3c0,1.6,1.3,3,3,3l0,0c13.7-0.1,22.7-6.8,26.8-19.9c0.5-1.6-0.4-3.2-1.9-3.7
		c-0.3-0.1-0.6-0.1-0.8-0.1h-24c-1.6,0-3,1.3-3,3c0,1.6,1.3,3,3,3H43C39.3,34.4,32.8,38.3,23.3,38.4z"/>
	<path d="M76.4,59.1L74,53.2l-6.5-16.4c0-0.1-0.1-0.3-0.2-0.4c-1.2-3.1-4.6-4.6-7.7-3.4c-1.2,0.4-2.2,1.3-2.8,2.3l0,0
		c-0.2,0.3-0.4,0.6-0.5,1l-8.3,17l-2.9,5.9l-3.7,7.6c-0.7,1.5-0.1,3.3,1.4,4s3.3,0.1,4-1.4l0,0l5-10.2H70l4,10
		c0.4,1.1,1.5,1.9,2.8,1.9c0.4,0,0.7-0.1,1.1-0.2c1.5-0.6,2.3-2.3,1.7-3.9c0,0,0,0,0,0L76.4,59.1z M54.6,53.2l4.6-9.4l2.7-5.4
		c0,0.2,0.1,0.4,0.2,0.5l2,5.1l3.7,9.2H54.6z"/>
</g>
</svg>
